<svg viewBox="-115 -115 230 230" width="230" height="230" xmlns="http://www.w3.org/2000/svg">

<style>
  line.axis {
    stroke: black;
    stroke-width: 1;
  }
  path.cross {
    stroke: red;
    stroke-width: 1;
    fill: none;
  }
  text.label {
    font-size: 12px;
    text-anchor: middle;
  }
  </style>

    <line x1="0" y1="-100" x2="0" y2="100" class="axis"/>
    <line x1="-100" y1="0" x2="100" y2="0" class="axis"/>
    <path d="M64.15 95.1 l7 7 M64.15 102.1 l7 -7" class="cross"/>
    <text x="67.65" y="91.6" class="label">&lt;BR&gt;</text>
    <path d="M-85.65 95.16 l7 7 M-85.65 102.16 l7 -7" class="cross"/>
    <text x="-82.15" y="91.66" class="label">are</text>
    <path d="M62.370000000000005 -78.5 l7 7 M62.370000000000005 -71.5 l7 -7" class="cross"/>
    <text x="65.87" y="-82.0" class="label">herbivores</text>
    <path d="M-82.76 -103.5 l7 7 M-82.76 -96.5 l7 -7" class="cross"/>
    <text x="-79.26" y="-107.0" class="label">sheep</text>
    <path d="M62.43000000000001 -82.79 l7 7 M62.43000000000001 -75.79 l7 -7" class="cross"/>
    <text x="65.93" y="-86.29" class="label">slow</text>
</svg>