<svg xmlns="http://www.w3.org/2000/svg" width="540" height="300">
<style>
    .activation { display: none; pointer-events: none; }
    .click-box {fill-opacity: 0;}
    .edge { stroke-width: 2; }
    .node { fill: #ccc; stroke: white; stroke-width: 2; }
    .node-activation { stroke: white; stroke-width: 0.5; }
    text { font-family: sans-serif; font-size: 12px; fill: black; alignment-baseline: middle; }
</style>
<g class="weights">
	<line class="edge" x1="120" y1="30.0" x2="270" y2="120.0" stroke="red" opacity="1.00"/>
	<line class="edge" x1="120" y1="90.0" x2="270" y2="120.0" stroke="blue" opacity="1.00"/>
	<line class="edge" x1="120" y1="150.0" x2="270" y2="120.0" stroke="blue" opacity="0.97"/>
	<line class="edge" x1="120" y1="210.0" x2="270" y2="120.0" stroke="blue" opacity="0.97"/>
	<line class="edge" x1="120" y1="270.0" x2="270" y2="120.0" stroke="red" opacity="1.00"/>
	<line class="edge" x1="120" y1="30.0" x2="270" y2="180.0" stroke="blue" opacity="1.00"/>
	<line class="edge" x1="120" y1="90.0" x2="270" y2="180.0" stroke="red" opacity="1.00"/>
	<line class="edge" x1="120" y1="150.0" x2="270" y2="180.0" stroke="blue" opacity="1.00"/>
	<line class="edge" x1="120" y1="210.0" x2="270" y2="180.0" stroke="blue" opacity="1.00"/>
	<line class="edge" x1="120" y1="270.0" x2="270" y2="180.0" stroke="red" opacity="0.99"/>
	<line class="edge" x1="270" y1="120.0" x2="420" y2="30.0" stroke="blue" opacity="1.00"/>
	<line class="edge" x1="270" y1="180.0" x2="420" y2="30.0" stroke="blue" opacity="0.99"/>
	<line class="edge" x1="270" y1="120.0" x2="420" y2="90.0" stroke="red" opacity="0.99"/>
	<line class="edge" x1="270" y1="180.0" x2="420" y2="90.0" stroke="red" opacity="1.00"/>
	<line class="edge" x1="270" y1="120.0" x2="420" y2="150.0" stroke="blue" opacity="0.99"/>
	<line class="edge" x1="270" y1="180.0" x2="420" y2="150.0" stroke="red" opacity="0.98"/>
	<line class="edge" x1="270" y1="120.0" x2="420" y2="210.0" stroke="blue" opacity="0.99"/>
	<line class="edge" x1="270" y1="180.0" x2="420" y2="210.0" stroke="red" opacity="0.99"/>
	<line class="edge" x1="270" y1="120.0" x2="420" y2="270.0" stroke="red" opacity="0.97"/>
	<line class="edge" x1="270" y1="180.0" x2="420" y2="270.0" stroke="blue" opacity="0.93"/>
</g>
	<circle class="node" cx="120" cy="30.0" r="20" />
	<circle class="node" cx="120" cy="90.0" r="20" />
	<circle class="node" cx="120" cy="150.0" r="20" />
	<circle class="node" cx="120" cy="210.0" r="20" />
	<circle class="node" cx="120" cy="270.0" r="20" />
	<circle class="node" cx="270" cy="120.0" r="20" />
	<circle class="node" cx="270" cy="180.0" r="20" />
	<circle class="node" cx="420" cy="30.0" r="20" />
	<circle class="node" cx="420" cy="90.0" r="20" />
	<circle class="node" cx="420" cy="150.0" r="20" />
	<circle class="node" cx="420" cy="210.0" r="20" />
	<circle class="node" cx="420" cy="270.0" r="20" />
	<text x="95" y="30.0" text-anchor="end">&lt;&gt;</text>
	<text x="95" y="90.0" text-anchor="end">are</text>
	<text x="95" y="150.0" text-anchor="end">herbivores</text>
	<text x="95" y="210.0" text-anchor="end">meek</text>
	<text x="95" y="270.0" text-anchor="end">sheep</text>
	<text x="445" y="30.0" >&lt;&gt;</text>
	<text x="445" y="90.0" >are</text>
	<text x="445" y="150.0" >herbivores</text>
	<text x="445" y="210.0" >meek</text>
	<text x="445" y="270.0" >sheep</text>
	<rect id="click-box-0" class="click-box" x="40" width="100" height="40" y="10.0" />
	<rect id="click-box-1" class="click-box" x="40" width="100" height="40" y="70.0" />
	<rect id="click-box-2" class="click-box" x="40" width="100" height="40" y="130.0" />
	<rect id="click-box-3" class="click-box" x="40" width="100" height="40" y="190.0" />
	<rect id="click-box-4" class="click-box" x="40" width="100" height="40" y="250.0" /><g id="activation-0" class="activation">
	<line class="edge" x1="120" y1="30.0" x2="270" y2="120.0" stroke="red" opacity="1.00"/>
	<line class="edge" x1="120" y1="30.0" x2="270" y2="180.0" stroke="blue" opacity="1.00"/>
	<line class="edge" x1="270" y1="120.0" x2="420" y2="30.0" stroke="blue" opacity="0.09"/>
	<line class="edge" x1="270" y1="180.0" x2="420" y2="30.0" stroke="blue" opacity="0.98"/>
	<line class="edge" x1="270" y1="120.0" x2="420" y2="90.0" stroke="red" opacity="0.07"/>
	<line class="edge" x1="270" y1="180.0" x2="420" y2="90.0" stroke="red" opacity="1.00"/>
	<line class="edge" x1="270" y1="120.0" x2="420" y2="150.0" stroke="blue" opacity="0.06"/>
	<line class="edge" x1="270" y1="180.0" x2="420" y2="150.0" stroke="red" opacity="0.98"/>
	<line class="edge" x1="270" y1="120.0" x2="420" y2="210.0" stroke="blue" opacity="0.07"/>
	<line class="edge" x1="270" y1="180.0" x2="420" y2="210.0" stroke="red" opacity="0.99"/>
	<line class="edge" x1="270" y1="120.0" x2="420" y2="270.0" stroke="red" opacity="0.06"/>
	<line class="edge" x1="270" y1="180.0" x2="420" y2="270.0" stroke="blue" opacity="0.92"/>
	<g transform="translate(120 30.0)">
            <circle class="node" cx="0" cy="0" r="20" />
            <circle class="node-activation" cx="0" cy="0" r="20.0" fill="#48f" />
            <text x="0" y="0" text-anchor="middle">1.00</text>
</g>
	<circle class="node" cx="120" cy="90.0" r="20" />
	<circle class="node" cx="120" cy="150.0" r="20" />
	<circle class="node" cx="120" cy="210.0" r="20" />
	<circle class="node" cx="120" cy="270.0" r="20" />
	<g transform="translate(270 120.0)">
            <circle class="node" cx="0" cy="0" r="20" />
            <circle class="node-activation" cx="0" cy="0" r="0.5" fill="#48f" />
            <text x="0" y="0" text-anchor="middle">0.03</text>
</g>
	<g transform="translate(270 180.0)">
            <circle class="node" cx="0" cy="0" r="20" />
            <circle class="node-activation" cx="0" cy="0" r="19.4" fill="#48f" />
            <text x="0" y="0" text-anchor="middle">0.97</text>
</g>
	<circle class="node" cx="420" cy="30.0" r="20" />
	<circle class="node" cx="420" cy="90.0" r="20" />
	<circle class="node" cx="420" cy="150.0" r="20" />
	<circle class="node" cx="420" cy="210.0" r="20" />
	<g transform="translate(420 270.0)">
            <circle class="node" cx="0" cy="0" r="20" />
            <circle class="node-activation" cx="0" cy="0" r="20.0" fill="#48f" />
            <text x="0" y="0" text-anchor="middle">1.00</text>
</g>
</g><g id="activation-1" class="activation">
	<line class="edge" x1="120" y1="90.0" x2="270" y2="120.0" stroke="blue" opacity="1.00"/>
	<line class="edge" x1="120" y1="90.0" x2="270" y2="180.0" stroke="red" opacity="1.00"/>
	<line class="edge" x1="270" y1="120.0" x2="420" y2="30.0" stroke="blue" opacity="1.00"/>
	<line class="edge" x1="270" y1="180.0" x2="420" y2="30.0" stroke="blue" opacity="0.11"/>
	<line class="edge" x1="270" y1="120.0" x2="420" y2="90.0" stroke="red" opacity="0.99"/>
	<line class="edge" x1="270" y1="180.0" x2="420" y2="90.0" stroke="red" opacity="0.18"/>
	<line class="edge" x1="270" y1="120.0" x2="420" y2="150.0" stroke="blue" opacity="0.99"/>
	<line class="edge" x1="270" y1="180.0" x2="420" y2="150.0" stroke="red" opacity="0.10"/>
	<line class="edge" x1="270" y1="120.0" x2="420" y2="210.0" stroke="blue" opacity="0.99"/>
	<line class="edge" x1="270" y1="180.0" x2="420" y2="210.0" stroke="red" opacity="0.11"/>
	<line class="edge" x1="270" y1="120.0" x2="420" y2="270.0" stroke="red" opacity="0.97"/>
	<line class="edge" x1="270" y1="180.0" x2="420" y2="270.0" stroke="blue" opacity="0.07"/>
	<circle class="node" cx="120" cy="30.0" r="20" />
	<g transform="translate(120 90.0)">
            <circle class="node" cx="0" cy="0" r="20" />
            <circle class="node-activation" cx="0" cy="0" r="20.0" fill="#48f" />
            <text x="0" y="0" text-anchor="middle">1.00</text>
</g>
	<circle class="node" cx="120" cy="150.0" r="20" />
	<circle class="node" cx="120" cy="210.0" r="20" />
	<circle class="node" cx="120" cy="270.0" r="20" />
	<g transform="translate(270 120.0)">
            <circle class="node" cx="0" cy="0" r="20" />
            <circle class="node-activation" cx="0" cy="0" r="19.5" fill="#48f" />
            <text x="0" y="0" text-anchor="middle">0.98</text>
</g>
	<g transform="translate(270 180.0)">
            <circle class="node" cx="0" cy="0" r="20" />
            <circle class="node-activation" cx="0" cy="0" r="0.9" fill="#48f" />
            <text x="0" y="0" text-anchor="middle">0.04</text>
</g>
	<circle class="node" cx="420" cy="30.0" r="20" />
	<circle class="node" cx="420" cy="90.0" r="20" />
	<g transform="translate(420 150.0)">
            <circle class="node" cx="0" cy="0" r="20" />
            <circle class="node-activation" cx="0" cy="0" r="10.0" fill="#48f" />
            <text x="0" y="0" text-anchor="middle">0.50</text>
</g>
	<g transform="translate(420 210.0)">
            <circle class="node" cx="0" cy="0" r="20" />
            <circle class="node-activation" cx="0" cy="0" r="10.0" fill="#48f" />
            <text x="0" y="0" text-anchor="middle">0.50</text>
</g>
	<circle class="node" cx="420" cy="270.0" r="20" />
</g><g id="activation-2" class="activation">
	<line class="edge" x1="120" y1="150.0" x2="270" y2="120.0" stroke="blue" opacity="0.97"/>
	<line class="edge" x1="120" y1="150.0" x2="270" y2="180.0" stroke="blue" opacity="1.00"/>
	<line class="edge" x1="270" y1="120.0" x2="420" y2="30.0" stroke="blue" opacity="1.00"/>
	<line class="edge" x1="270" y1="180.0" x2="420" y2="30.0" stroke="blue" opacity="0.98"/>
	<line class="edge" x1="270" y1="120.0" x2="420" y2="90.0" stroke="red" opacity="0.98"/>
	<line class="edge" x1="270" y1="180.0" x2="420" y2="90.0" stroke="red" opacity="1.00"/>
	<line class="edge" x1="270" y1="120.0" x2="420" y2="150.0" stroke="blue" opacity="0.98"/>
	<line class="edge" x1="270" y1="180.0" x2="420" y2="150.0" stroke="red" opacity="0.98"/>
	<line class="edge" x1="270" y1="120.0" x2="420" y2="210.0" stroke="blue" opacity="0.98"/>
	<line class="edge" x1="270" y1="180.0" x2="420" y2="210.0" stroke="red" opacity="0.99"/>
	<line class="edge" x1="270" y1="120.0" x2="420" y2="270.0" stroke="red" opacity="0.96"/>
	<line class="edge" x1="270" y1="180.0" x2="420" y2="270.0" stroke="blue" opacity="0.93"/>
	<circle class="node" cx="120" cy="30.0" r="20" />
	<circle class="node" cx="120" cy="90.0" r="20" />
	<g transform="translate(120 150.0)">
            <circle class="node" cx="0" cy="0" r="20" />
            <circle class="node-activation" cx="0" cy="0" r="20.0" fill="#48f" />
            <text x="0" y="0" text-anchor="middle">1.00</text>
</g>
	<circle class="node" cx="120" cy="210.0" r="20" />
	<circle class="node" cx="120" cy="270.0" r="20" />
	<g transform="translate(270 120.0)">
            <circle class="node" cx="0" cy="0" r="20" />
            <circle class="node-activation" cx="0" cy="0" r="18.4" fill="#48f" />
            <text x="0" y="0" text-anchor="middle">0.92</text>
</g>
	<g transform="translate(270 180.0)">
            <circle class="node" cx="0" cy="0" r="20" />
            <circle class="node-activation" cx="0" cy="0" r="19.7" fill="#48f" />
            <text x="0" y="0" text-anchor="middle">0.98</text>
</g>
	<g transform="translate(420 30.0)">
            <circle class="node" cx="0" cy="0" r="20" />
            <circle class="node-activation" cx="0" cy="0" r="20.0" fill="#48f" />
            <text x="0" y="0" text-anchor="middle">1.00</text>
</g>
	<circle class="node" cx="420" cy="90.0" r="20" />
	<circle class="node" cx="420" cy="150.0" r="20" />
	<circle class="node" cx="420" cy="210.0" r="20" />
	<circle class="node" cx="420" cy="270.0" r="20" />
</g><g id="activation-3" class="activation">
	<line class="edge" x1="120" y1="210.0" x2="270" y2="120.0" stroke="blue" opacity="0.97"/>
	<line class="edge" x1="120" y1="210.0" x2="270" y2="180.0" stroke="blue" opacity="1.00"/>
	<line class="edge" x1="270" y1="120.0" x2="420" y2="30.0" stroke="blue" opacity="1.00"/>
	<line class="edge" x1="270" y1="180.0" x2="420" y2="30.0" stroke="blue" opacity="0.98"/>
	<line class="edge" x1="270" y1="120.0" x2="420" y2="90.0" stroke="red" opacity="0.98"/>
	<line class="edge" x1="270" y1="180.0" x2="420" y2="90.0" stroke="red" opacity="1.00"/>
	<line class="edge" x1="270" y1="120.0" x2="420" y2="150.0" stroke="blue" opacity="0.98"/>
	<line class="edge" x1="270" y1="180.0" x2="420" y2="150.0" stroke="red" opacity="0.98"/>
	<line class="edge" x1="270" y1="120.0" x2="420" y2="210.0" stroke="blue" opacity="0.98"/>
	<line class="edge" x1="270" y1="180.0" x2="420" y2="210.0" stroke="red" opacity="0.99"/>
	<line class="edge" x1="270" y1="120.0" x2="420" y2="270.0" stroke="red" opacity="0.96"/>
	<line class="edge" x1="270" y1="180.0" x2="420" y2="270.0" stroke="blue" opacity="0.93"/>
	<circle class="node" cx="120" cy="30.0" r="20" />
	<circle class="node" cx="120" cy="90.0" r="20" />
	<circle class="node" cx="120" cy="150.0" r="20" />
	<g transform="translate(120 210.0)">
            <circle class="node" cx="0" cy="0" r="20" />
            <circle class="node-activation" cx="0" cy="0" r="20.0" fill="#48f" />
            <text x="0" y="0" text-anchor="middle">1.00</text>
</g>
	<circle class="node" cx="120" cy="270.0" r="20" />
	<g transform="translate(270 120.0)">
            <circle class="node" cx="0" cy="0" r="20" />
            <circle class="node-activation" cx="0" cy="0" r="18.4" fill="#48f" />
            <text x="0" y="0" text-anchor="middle">0.92</text>
</g>
	<g transform="translate(270 180.0)">
            <circle class="node" cx="0" cy="0" r="20" />
            <circle class="node-activation" cx="0" cy="0" r="19.7" fill="#48f" />
            <text x="0" y="0" text-anchor="middle">0.98</text>
</g>
	<g transform="translate(420 30.0)">
            <circle class="node" cx="0" cy="0" r="20" />
            <circle class="node-activation" cx="0" cy="0" r="20.0" fill="#48f" />
            <text x="0" y="0" text-anchor="middle">1.00</text>
</g>
	<circle class="node" cx="420" cy="90.0" r="20" />
	<circle class="node" cx="420" cy="150.0" r="20" />
	<circle class="node" cx="420" cy="210.0" r="20" />
	<circle class="node" cx="420" cy="270.0" r="20" />
</g><g id="activation-4" class="activation">
	<line class="edge" x1="120" y1="270.0" x2="270" y2="120.0" stroke="red" opacity="1.00"/>
	<line class="edge" x1="120" y1="270.0" x2="270" y2="180.0" stroke="red" opacity="0.99"/>
	<line class="edge" x1="270" y1="120.0" x2="420" y2="30.0" stroke="blue" opacity="0.13"/>
	<line class="edge" x1="270" y1="180.0" x2="420" y2="30.0" stroke="blue" opacity="0.21"/>
	<line class="edge" x1="270" y1="120.0" x2="420" y2="90.0" stroke="red" opacity="0.10"/>
	<line class="edge" x1="270" y1="180.0" x2="420" y2="90.0" stroke="red" opacity="0.34"/>
	<line class="edge" x1="270" y1="120.0" x2="420" y2="150.0" stroke="blue" opacity="0.10"/>
	<line class="edge" x1="270" y1="180.0" x2="420" y2="150.0" stroke="red" opacity="0.19"/>
	<line class="edge" x1="270" y1="120.0" x2="420" y2="210.0" stroke="blue" opacity="0.10"/>
	<line class="edge" x1="270" y1="180.0" x2="420" y2="210.0" stroke="red" opacity="0.22"/>
	<line class="edge" x1="270" y1="120.0" x2="420" y2="270.0" stroke="red" opacity="0.09"/>
	<line class="edge" x1="270" y1="180.0" x2="420" y2="270.0" stroke="blue" opacity="0.14"/>
	<circle class="node" cx="120" cy="30.0" r="20" />
	<circle class="node" cx="120" cy="90.0" r="20" />
	<circle class="node" cx="120" cy="150.0" r="20" />
	<circle class="node" cx="120" cy="210.0" r="20" />
	<g transform="translate(120 270.0)">
            <circle class="node" cx="0" cy="0" r="20" />
            <circle class="node-activation" cx="0" cy="0" r="20.0" fill="#48f" />
            <text x="0" y="0" text-anchor="middle">1.00</text>
</g>
	<g transform="translate(270 120.0)">
            <circle class="node" cx="0" cy="0" r="20" />
            <circle class="node-activation" cx="0" cy="0" r="0.8" fill="#48f" />
            <text x="0" y="0" text-anchor="middle">0.04</text>
</g>
	<g transform="translate(270 180.0)">
            <circle class="node" cx="0" cy="0" r="20" />
            <circle class="node-activation" cx="0" cy="0" r="1.7" fill="#48f" />
            <text x="0" y="0" text-anchor="middle">0.08</text>
</g>
	<circle class="node" cx="420" cy="30.0" r="20" />
	<g transform="translate(420 90.0)">
            <circle class="node" cx="0" cy="0" r="20" />
            <circle class="node-activation" cx="0" cy="0" r="20.0" fill="#48f" />
            <text x="0" y="0" text-anchor="middle">1.00</text>
</g>
	<circle class="node" cx="420" cy="150.0" r="20" />
	<circle class="node" cx="420" cy="210.0" r="20" />
	<circle class="node" cx="420" cy="270.0" r="20" />
</g>
<script>
	const clickBoxes = document.querySelectorAll('.click-box');
	const activations = document.querySelectorAll('.activation');
	const weights = document.querySelector('.weights');
	let selectedBox = -1;

	const selectBox = (i) => {
		selectedBox = i;
		activations[i].style.display = 'block';
		weights.style.display = 'none';
	};

	clickBoxes.forEach((box, index) => {
		const handleEvent = () => {
			if (selectedBox === -1) {
				selectBox(index);
			} else if (selectedBox === index) {
				// Deselect the already selected box
				activations[index].style.display = 'none';
				weights.style.display = 'block';
				selectedBox = -1;
			} else {
				// Deselect the previously selected box and select the new one
				activations[selectedBox].style.display = 'none';
				selectBox(index);
			}
		};

		box.addEventListener('click', handleEvent);
		box.addEventListener('touchstart', (e) => {
			e.preventDefault(); // Prevents touch from triggering click
			handleEvent();
		});
	});
</script>
</svg>