<svg viewBox="0 0 480 280" xmlns="http://www.w3.org/2000/svg">

<style>
  .node {
    fill: #aaa;
  }
  .node-label {
    dominant-baseline: middle;
  }
  .edge {
    stroke: #aaa;
    stroke-width: 2;
    opacity: 0.8;
  }
  .label-left {
    text-anchor: end;
  }
  </style>

    <rect x="0" y="0" width="480" height="280" fill="#eee" stroke="#ccc"/>
    <circle class="node" cx="120" cy="30" r="20"/>
    <circle class="node" cx="360" cy="30" r="20"/>
    <text x="90" y="30" class="node-label label-left">&lt;BR&gt;</text>
    <text x="390" y="30" class="node-label">&lt;BR&gt;</text>
    <circle class="node" cx="120" cy="85" r="20"/>
    <circle class="node" cx="360" cy="85" r="20"/>
    <text x="90" y="85" class="node-label label-left">are</text>
    <text x="390" y="85" class="node-label">are</text>
    <circle class="node" cx="120" cy="140" r="20"/>
    <circle class="node" cx="360" cy="140" r="20"/>
    <text x="90" y="140" class="node-label label-left">herbivores</text>
    <text x="390" y="140" class="node-label">herbivores</text>
    <circle class="node" cx="120" cy="195" r="20"/>
    <circle class="node" cx="360" cy="195" r="20"/>
    <text x="90" y="195" class="node-label label-left">sheep</text>
    <text x="390" y="195" class="node-label">sheep</text>
    <circle class="node" cx="120" cy="250" r="20"/>
    <circle class="node" cx="360" cy="250" r="20"/>
    <text x="90" y="250" class="node-label label-left">slow</text>
    <text x="390" y="250" class="node-label">slow</text>
    <line x1="142.0" y1="30.0" x2="338.0" y2="30.0" class="edge"/>
    <line x1="141.44411100762204" y1="34.914275439246715" x2="338.55588899237796" y2="80.08572456075328" class="edge"/>
    <line x1="139.99942610367424" y1="39.1664036308507" x2="340.00057389632576" y2="130.8335963691493" class="edge"/>
    <line x1="138.12892233238608" y1="42.46363410351543" x2="341.8710776676139" y2="182.53636589648457" class="edge"/>
    <line x1="136.2173910844163" y1="44.86594182738162" x2="343.7826089155837" y2="235.13405817261838" class="edge"/>
    <line x1="141.44411100762204" y1="80.08572456075328" x2="338.55588899237796" y2="34.914275439246715" class="edge"/>
    <line x1="142.0" y1="85.0" x2="338.0" y2="85.0" class="edge"/>
    <line x1="141.44411100762204" y1="89.91427543924672" x2="338.55588899237796" y2="135.08572456075328" class="edge"/>
    <line x1="139.99942610367424" y1="94.1664036308507" x2="340.00057389632576" y2="185.8335963691493" class="edge"/>
    <line x1="138.12892233238608" y1="97.46363410351543" x2="341.8710776676139" y2="237.53636589648457" class="edge"/>
    <line x1="139.99942610367424" y1="130.8335963691493" x2="340.00057389632576" y2="39.1664036308507" class="edge"/>
    <line x1="141.44411100762204" y1="135.08572456075328" x2="338.55588899237796" y2="89.91427543924672" class="edge"/>
    <line x1="142.0" y1="140.0" x2="338.0" y2="140.0" class="edge"/>
    <line x1="141.44411100762204" y1="144.91427543924672" x2="338.55588899237796" y2="190.08572456075328" class="edge"/>
    <line x1="139.99942610367424" y1="149.1664036308507" x2="340.00057389632576" y2="240.8335963691493" class="edge"/>
    <line x1="138.12892233238608" y1="182.53636589648457" x2="341.8710776676139" y2="42.46363410351543" class="edge"/>
    <line x1="139.99942610367424" y1="185.8335963691493" x2="340.00057389632576" y2="94.1664036308507" class="edge"/>
    <line x1="141.44411100762204" y1="190.08572456075328" x2="338.55588899237796" y2="144.91427543924672" class="edge"/>
    <line x1="142.0" y1="195.0" x2="338.0" y2="195.0" class="edge"/>
    <line x1="141.44411100762204" y1="199.91427543924672" x2="338.55588899237796" y2="245.08572456075328" class="edge"/>
    <line x1="136.2173910844163" y1="235.13405817261838" x2="343.7826089155837" y2="44.86594182738162" class="edge"/>
    <line x1="138.12892233238608" y1="237.53636589648457" x2="341.8710776676139" y2="97.46363410351543" class="edge"/>
    <line x1="139.99942610367424" y1="240.8335963691493" x2="340.00057389632576" y2="149.1664036308507" class="edge"/>
    <line x1="141.44411100762204" y1="245.08572456075328" x2="338.55588899237796" y2="199.91427543924672" class="edge"/>
    <line x1="142.0" y1="250.0" x2="338.0" y2="250.0" class="edge"/>
</svg>