<svg id="simple_chain" viewBox="0 0 860 300" xmlns="http://www.w3.org/2000/svg">

<style>
  .node circle {
    fill: none;
    stroke: #111;
    stroke-width: 1;
  }
  .node text {
    dominant-baseline: middle;
  }
  .edge line {
    stroke-width: 2;
    stroke: rgb(45, 125, 122);
    marker-end: url(#arrow);
  }
  .hit-box {
    opacity: 0;
  }
  </style>

    <defs>
        <marker id="arrow" viewBox="0 0 15 15" refX="5" refY="5" markerWidth="6" markerHeight="6" orient="auto-start-reverse">
            <path d="M 0 0 L 10 5 L 0 10 z" fill="currentColor"/>
        </marker>
    </defs>
    <g class="node">
        <circle cx="30" cy="150" r="20"/>
        <text x="30" y="180.0" text-anchor="middle" class="label">&lt;BR&gt;</text>
        <circle cx="230" cy="110" r="20"/>
        <text x="230" y="140.0" text-anchor="middle" class="label">sheep</text>
        <circle cx="230" cy="190" r="20"/>
        <text x="230" y="220.0" text-anchor="middle" class="label">rabbits</text>
        <circle cx="430" cy="70" r="20"/>
        <text x="430" y="100.0" text-anchor="middle" class="label">are</text>
        <circle cx="430" cy="150" r="20"/>
        <text x="430" y="180.0" text-anchor="middle" class="label">eat</text>
        <circle cx="430" cy="230" r="20"/>
        <text x="430" y="260.0" text-anchor="middle" class="label">like</text>
        <circle cx="630" cy="30" r="20"/>
        <text x="630" y="60.0" text-anchor="middle" class="label">herbivores</text>
        <circle cx="630" cy="110" r="20"/>
        <text x="630" y="140.0" text-anchor="middle" class="label">slow</text>
        <circle cx="630" cy="190" r="20"/>
        <text x="630" y="220.0" text-anchor="middle" class="label">grass</text>
        <circle cx="630" cy="270" r="20"/>
        <text x="630" y="300.0" text-anchor="middle" class="label">running</text>
        <circle cx="830" cy="150" r="20"/>
        <text x="830" y="180.0" text-anchor="middle" class="label">&lt;END&gt;</text>
    </g>
    <g class="edge edge-arrow">
        <line x1="51.6" y1="145.7" x2="204.5" y2="115.1"/>
        <line x1="51.6" y1="154.3" x2="204.5" y2="184.9"/>
        <line x1="251.6" y1="105.7" x2="404.5" y2="75.1"/>
        <line x1="251.6" y1="114.3" x2="404.5" y2="144.9"/>
        <line x1="248.9" y1="178.7" x2="407.7" y2="83.4"/>
        <line x1="251.6" y1="185.7" x2="404.5" y2="155.1"/>
        <line x1="251.6" y1="194.3" x2="404.5" y2="224.9"/>
        <line x1="451.6" y1="65.7" x2="604.5" y2="35.1"/>
        <line x1="451.6" y1="74.3" x2="604.5" y2="104.9"/>
        <line x1="451.6" y1="154.3" x2="604.5" y2="184.9"/>
        <line x1="451.6" y1="234.3" x2="604.5" y2="264.9"/>
        <line x1="648.9" y1="41.3" x2="807.7" y2="136.6"/>
        <line x1="651.6" y1="114.3" x2="804.5" y2="144.9"/>
        <line x1="651.6" y1="185.7" x2="804.5" y2="155.1"/>
        <line x1="648.9" y1="258.7" x2="807.7" y2="163.4"/>
    </g>
</svg>