<svg viewBox="-115 -115 230 230" width="230" height="230" xmlns="http://www.w3.org/2000/svg">

<style>
  line.axis {
    stroke: black;
    stroke-width: 1;
  }
  path.cross {
    stroke: red;
    stroke-width: 1;
    fill: none;
  }
  text.plot-label {
    font-size: 12px;
    text-anchor: middle;
  }
  </style>

    <line x1="0" y1="-100" x2="0" y2="100" class="axis"/>
    <line x1="-100" y1="0" x2="100" y2="0" class="axis"/>
    <path d="M-71.03 85.4 l7 7 M-71.03 92.4 l7 -7" class="cross"/>
    <text x="-67.53" y="81.9" class="plot-label">&lt;BR&gt;</text>
    <path d="M-65.88 -87.08 l7 7 M-65.88 -80.08 l7 -7" class="cross"/>
    <text x="-62.38" y="-90.58" class="plot-label">are</text>
    <path d="M86.19 -88.82 l7 7 M86.19 -81.82 l7 -7" class="cross"/>
    <text x="89.69" y="-92.32" class="plot-label">eat</text>
    <path d="M32.82 57.27 l7 7 M32.82 64.27000000000001 l7 -7" class="cross"/>
    <text x="36.32" y="53.77" class="plot-label">fast</text>
    <path d="M43.9 53.82 l7 7 M43.9 60.82 l7 -7" class="cross"/>
    <text x="47.4" y="50.32" class="plot-label">grass</text>
    <path d="M49.5 56.56 l7 7 M49.5 63.56 l7 -7" class="cross"/>
    <text x="53.0" y="53.06" class="plot-label">herbivores</text>
    <path d="M7.8100000000000005 -18.990000000000002 l7 7 M7.8100000000000005 -11.99 l7 -7" class="cross"/>
    <text x="11.31" y="-22.490000000000002" class="plot-label">rabbits</text>
    <path d="M-103.5 -2.9699999999999998 l7 7 M-103.5 4.03 l7 -7" class="cross"/>
    <text x="-100.0" y="-6.47" class="plot-label">run</text>
    <path d="M43.71 -8.93 l7 7 M43.71 -1.9299999999999997 l7 -7" class="cross"/>
    <text x="47.21" y="-12.43" class="plot-label">sheep</text>
    <path d="M44.48 51.94 l7 7 M44.48 58.94 l7 -7" class="cross"/>
    <text x="47.98" y="48.44" class="plot-label">slow</text>
</svg>